<?xml version="1.0" encoding="utf-8"?>
<svg viewBox="95.99 230.04 505.6172 473.85" width="505.6172" height="473.85" xmlns="http://www.w3.org/2000/svg">
  <g style="pointer-events: none;" transform="matrix(1, 0, 0, 1, 0, 2.842170943040401e-14)">
    <title>Logo</title>
    <circle fill="#010101" cx="318.66" cy="263.69" r="33.65"/>
    <path fill="#010101" d=" M 416.38 421.36 C 390.05 419.23 369.21 401.38 364.53 375.41 C 357.35 335.61 393.15 300.91 433.15 310.22 C 453.91 315.05 469.53 330.33 475.00 351.10 C 476.17 355.53 476.48 360.58 476.78 365.41 C 477.64 379.51 490.69 391.34 505.03 389.02 Q 514.39 387.51 517.06 387.35 C 566.37 384.35 606.96 426.52 601.03 475.97 C 595.45 522.57 553.10 553.28 506.90 544.89 C 488.79 541.61 476.79 555.76 476.30 573.00 C 475.49 601.44 450.84 623.64 423.03 624.91 C 381.53 626.80 351.90 585.56 368.02 546.97 C 376.10 527.64 392.13 515.33 413.33 512.75 Q 417.06 512.30 420.79 511.93 C 433.63 510.65 445.73 499.48 444.12 485.51 C 443.34 478.67 441.66 471.45 442.19 464.74 Q 442.75 457.60 443.98 450.52 C 446.19 437.80 437.47 426.39 425.81 422.69 Q 423.43 421.93 416.38 421.36 Z"/>
    <circle fill="#010101" cx="217.08" cy="365.31" r="24.47"/>
    <circle fill="#010101" cx="318.67" cy="466.91" r="33.62"/>
    <circle fill="#010101" cx="115.34" cy="467.02" r="19.35"/>
    <circle fill="#010101" cx="217.07" cy="568.53" r="24.47"/>
    <circle fill="#010101" cx="318.67" cy="670.25" r="33.64"/>
  </g>
</svg>