<?xml version="1.0" encoding="utf-8"?>
<svg version="1.1" viewBox="0.00 0.00 2219.00 945.00" xmlns="http://www.w3.org/2000/svg">
  <g style="pointer-events: none;">
    <title>Logo</title>
    <circle fill="#010101" cx="318.66" cy="263.69" r="33.65"/>
    <path fill="#010101" d=" M 416.38 421.36 C 390.05 419.23 369.21 401.38 364.53 375.41 C 357.35 335.61 393.15 300.91 433.15 310.22 C 453.91 315.05 469.53 330.33 475.00 351.10 C 476.17 355.53 476.48 360.58 476.78 365.41 C 477.64 379.51 490.69 391.34 505.03 389.02 Q 514.39 387.51 517.06 387.35 C 566.37 384.35 606.96 426.52 601.03 475.97 C 595.45 522.57 553.10 553.28 506.90 544.89 C 488.79 541.61 476.79 555.76 476.30 573.00 C 475.49 601.44 450.84 623.64 423.03 624.91 C 381.53 626.80 351.90 585.56 368.02 546.97 C 376.10 527.64 392.13 515.33 413.33 512.75 Q 417.06 512.30 420.79 511.93 C 433.63 510.65 445.73 499.48 444.12 485.51 C 443.34 478.67 441.66 471.45 442.19 464.74 Q 442.75 457.60 443.98 450.52 C 446.19 437.80 437.47 426.39 425.81 422.69 Q 423.43 421.93 416.38 421.36 Z"/>
    <circle fill="#010101" cx="217.08" cy="365.31" r="24.47"/>
    <circle fill="#010101" cx="318.67" cy="466.91" r="33.62"/>
    <circle fill="#010101" cx="115.34" cy="467.02" r="19.35"/>
    <circle fill="#010101" cx="217.07" cy="568.53" r="24.47"/>
    <circle fill="#010101" cx="318.67" cy="670.25" r="33.64"/>
  </g>
  <g style="pointer-events: none;">
    <title>LuxRender</title>
    <path fill="#010101" d="M 711.51 546.25 C 686.29 544.58 657.53 534.86 657.42 504.24 C 657.273 464.52 657.103 424.957 656.91 385.55 C 656.904 385.084 657.284 384.704 657.75 384.71 L 692.26 385.08 C 692.58 385.08 692.74 385.237 692.74 385.55 C 692.767 424.21 692.763 462.863 692.73 501.51 C 692.72 514.23 710.64 515.95 720.26 516 C 754.773 516.193 789.29 516.36 823.81 516.5 C 824.137 516.5 824.3 516.667 824.3 517 L 824.24 546.78 C 824.24 547.113 824.073 547.277 823.74 547.27 C 786.42 547.13 748.71 548.7 711.51 546.25 Z">
      <title>L</title>
    </path>
    <path fill="#010101" d="M 876.77 545.13 C 859.5 542.34 841.08 534.49 837.06 515.44 C 836.6 513.253 836.35 507.317 836.31 497.63 C 836.21 471.497 836.203 445.273 836.29 418.96 C 836.297 418.153 836.7 417.75 837.5 417.75 L 869.98 417.75 C 870.251 417.75 870.47 417.969 870.47 418.24 C 870.53 441.947 870.533 465.617 870.48 489.25 C 870.47 494.18 870 501.51 870.69 507.81 C 871.59 515.9 891.84 517.03 897.43 517.14 C 921.723 517.653 942.577 517.46 959.99 516.56 C 963.88 516.36 976.99 513.38 976.99 507.44 C 977.003 477.693 977.007 447.967 977 418.26 C 977 417.978 977.224 417.75 977.5 417.75 L 1011.23 417.75 C 1011.501 417.75 1011.72 417.969 1011.72 418.24 C 1011.78 444.613 1011.783 470.947 1011.73 497.24 C 1011.71 510.59 1011.63 524.39 1000.69 533.68 C 987.74 544.69 968.67 546.79 951.56 547.18 C 931.873 547.627 912.187 547.57 892.5 547.01 C 889.147 546.917 883.903 546.29 876.77 545.13 Z">
      <title>U</title>
    </path>
    <path fill="#010101" d="M 1102.68 460.44 L 1140.45 418.25 C 1141.139 417.485 1142.114 417.042 1143.14 417.03 C 1155.91 416.89 1168.77 417.93 1181.08 416.77 C 1182.147 416.67 1182.323 417.02 1181.61 417.82 L 1123.83 482.98 C 1123.49 483.362 1123.49 483.935 1123.83 484.31 L 1181.28 547.69 C 1181.96 548.437 1181.793 548.81 1180.78 548.81 L 1140.85 548.72 C 1139.597 548.72 1138.557 548.25 1137.73 547.31 L 1102.56 507.6 C 1102.417 507.437 1102.163 507.437 1102.02 507.6 L 1066.31 547.93 C 1066.09 548.183 1065.817 548.343 1065.49 548.41 C 1064.27 548.683 1063.023 548.813 1061.75 548.8 C 1048.717 548.667 1035.797 548.707 1022.99 548.92 C 1022.674 548.921 1022.476 548.58 1022.633 548.306 C 1022.646 548.283 1022.662 548.26 1022.68 548.24 L 1081.42 483.74 C 1081.707 483.42 1081.683 483.123 1081.35 482.85 C 1079.317 481.197 1077.96 479.983 1077.28 479.21 C 1059.24 458.61 1041.003 438.063 1022.57 417.57 C 1022.408 417.395 1022.497 417.11 1022.73 417.057 C 1022.75 417.053 1022.77 417.051 1022.79 417.05 C 1035.037 416.89 1047.357 416.963 1059.75 417.27 C 1060.843 417.297 1061.933 417.413 1063.02 417.62 C 1063.367 417.687 1063.657 417.85 1063.89 418.11 L 1102.06 460.44 C 1102.267 460.673 1102.473 460.673 1102.68 460.44 Z">
      <title>X</title>
    </path>
    <path fill="#010101" d="M 1189.28 461.51 C 1189.41 413.75 1242.35 418.54 1273.88 418.37 C 1274.293 418.37 1274.5 418.577 1274.5 418.99 L 1274.5 447.26 C 1274.5 448.22 1274.02 448.703 1273.06 448.71 C 1263.913 448.75 1254.977 448.77 1246.25 448.77 C 1240.81 448.77 1232.22 449.91 1228.24 452.1 C 1224.94 453.92 1223.287 457.237 1223.28 462.05 C 1223.26 490.65 1223.24 519.307 1223.22 548.02 C 1223.22 548.285 1223.005 548.5 1222.74 548.5 L 1189.76 548.5 C 1189.433 548.5 1189.27 548.337 1189.27 548.01 C 1189.197 519.163 1189.2 490.33 1189.28 461.51 Z">
      <title>R</title>
    </path>
    <path fill="#010101" d="M 1319.63 500.88 C 1323.48 510.77 1333.22 514.29 1343.1 515.64 C 1356.707 517.5 1370.01 518.053 1383.01 517.3 C 1383.337 517.28 1383.5 517.433 1383.5 517.76 L 1383.5 546.76 C 1383.5 547.247 1383.257 547.493 1382.77 547.5 C 1367.85 547.573 1353.52 547.343 1339.78 546.81 C 1339.17 546.78 1338.23 546.3 1337.74 546.28 C 1313.06 545.23 1287.13 534.22 1284.8 506.2 C 1284.04 497.12 1285.1 481.26 1284.73 468.65 C 1284.543 462.163 1284.703 457.6 1285.21 454.96 C 1291.29 423.38 1328.71 418.5 1354.75 418.18 C 1368.17 418.007 1383.587 418.047 1401 418.3 C 1420.43 418.58 1449.87 424.2 1456.87 445.63 C 1457.93 448.863 1458.47 454.53 1458.49 462.63 C 1458.517 474.803 1458.517 486.93 1458.49 499.01 C 1458.49 499.386 1458.181 499.69 1457.8 499.69 L 1320.32 499.88 C 1319.804 499.882 1319.449 500.397 1319.63 500.88 Z M 1320.09 469.36 L 1423.83 469.36 C 1424.515 469.36 1425.07 468.805 1425.07 468.12 L 1425.07 459.72 C 1425.07 453.302 1414.956 448.1 1402.48 448.1 L 1341.44 448.1 C 1328.964 448.1 1318.85 453.302 1318.85 459.72 L 1318.85 468.12 C 1318.85 468.805 1319.405 469.36 1320.09 469.36 Z">
      <title>E</title>
    </path>
    <path fill="#010101" d="M 1606.69 457.27 C 1604.47 450.53 1584.78 448.79 1579 448.68 C 1554.333 448.193 1536.917 448.307 1526.75 449.02 C 1520.33 449.473 1514.183 450.997 1508.31 453.59 C 1504.35 455.34 1504.58 458.16 1504.52 462.56 C 1504.12 490.407 1504.17 518.74 1504.67 547.56 C 1504.676 547.801 1504.481 548 1504.24 548 L 1470.77 548 C 1470.494 548 1470.27 547.776 1470.27 547.5 C 1470.223 518.88 1470.233 490.3 1470.3 461.76 C 1470.33 452.65 1470.7 444.47 1476.78 436.75 C 1488.25 422.2 1510.11 418.77 1527.44 418.48 C 1545.953 418.173 1564.473 418.193 1583 418.54 C 1603.76 418.93 1635.05 423.57 1640.59 447.17 C 1641.17 449.643 1641.51 453.887 1641.61 459.9 C 1642.08 488.84 1641.83 517.65 1642.04 546.71 C 1642.047 547.57 1641.62 548 1640.76 548 L 1607.76 548 C 1607.427 548 1607.26 547.83 1607.26 547.49 C 1607.247 518.65 1607.243 489.82 1607.25 461 C 1607.25 459.647 1607.063 458.403 1606.69 457.27 Z">
      <title>N</title>
    </path>
    <path fill="#010101" d="M 1797.71 418.78 L 1797.77 385.7 C 1797.77 385.347 1797.947 385.173 1798.3 385.18 L 1831.17 385.44 C 1831.55 385.447 1831.74 385.64 1831.74 386.02 C 1831.753 423.107 1831.763 460.173 1831.77 497.22 C 1831.77 506.167 1831.253 512.303 1830.22 515.63 C 1822.9 539.15 1789.73 546.4 1768.68 547.06 C 1749.81 547.66 1730.59 547.89 1711.73 547.01 C 1692.04 546.09 1664.19 541.13 1657.86 519.09 C 1656.913 515.803 1656.457 510.383 1656.49 502.83 C 1656.537 491.643 1656.53 480.467 1656.47 469.3 C 1656.423 460.6 1656.873 454.423 1657.82 450.77 C 1664.67 424.43 1694.68 419.95 1717.31 419.7 C 1743.89 419.4 1770.467 419.313 1797.04 419.44 C 1797.487 419.44 1797.71 419.22 1797.71 418.78 Z M 1690.68 504.56 C 1690.9 517.88 1709.64 517.39 1719.5 517.44 C 1737.587 517.527 1755.667 517.287 1773.74 516.72 C 1779.24 516.54 1797.35 514.33 1797.57 506.5 C 1797.81 498.34 1797.853 479.627 1797.7 450.36 C 1797.7 450.027 1797.533 449.853 1797.2 449.84 C 1776.43 449.08 1753.15 449.45 1723.06 449.58 C 1716.65 449.6 1691.36 450.16 1690.94 459.25 C 1690.447 469.83 1690.36 484.933 1690.68 504.56 Z">
      <title>D</title>
    </path>
    <path fill="#010101" d="M 1902.26 546.88 C 1875.73 545.88 1843.46 536.78 1843.69 503.74 C 1843.85 481.747 1843.893 467.167 1843.82 460 C 1843.52 431.51 1874.49 420.78 1897.47 418.81 C 1917.09 417.14 1936.67 418.13 1957.75 418.32 C 1982.64 418.54 2016.62 425.59 2017.1 457.3 C 2017.313 471.213 2017.343 485.053 2017.19 498.82 C 2017.185 499.297 2016.797 499.68 2016.32 499.68 L 1878.81 499.9 C 1878.383 499.907 1878.085 500.322 1878.22 500.72 C 1881.04 509.23 1887.38 512.34 1895.77 514.33 C 1911.14 517.99 1925.57 517.64 1940.97 517.47 C 1941.657 517.463 1942 517.803 1942 518.49 L 1942 546.99 C 1942 547.33 1941.83 547.5 1941.49 547.5 C 1928.39 547.58 1915.313 547.373 1902.26 546.88 Z M 1878.41 469.26 L 1982.69 469.26 C 1983.309 469.26 1983.81 468.759 1983.81 468.14 L 1983.81 459.72 C 1983.81 453.347 1973.808 448.18 1961.47 448.18 L 1899.63 448.18 C 1887.292 448.18 1877.29 453.347 1877.29 459.72 L 1877.29 468.14 C 1877.29 468.759 1877.791 469.26 1878.41 469.26 Z">
      <title>E</title>
    </path>
    <path fill="#010101" d=" M 2062.83 465.31 Q 2062.71 506.50 2062.76 547.73 Q 2062.76 548.25 2062.24 548.25 L 2029.02 548.25 Q 2028.56 548.25 2028.55 547.78 Q 2028.36 507.50 2028.60 467.25 Q 2028.69 452.67 2030.27 447.40 C 2040.10 414.58 2087.63 418.43 2113.42 418.22 Q 2114.17 418.21 2114.18 418.96 L 2114.42 448.02 Q 2114.42 448.41 2114.04 448.42 Q 2098.88 448.64 2083.83 448.98 C 2077.20 449.13 2069.30 450.24 2064.08 454.68 Q 2063.68 455.02 2063.60 455.53 Q 2062.84 460.42 2062.83 465.31 Z">
      <title>R</title>
    </path>
  </g>
  <g style="pointer-events: none;">
    <title>GPL PBR</title>
    <path fill="#010101" d=" M 702.59 624.82 L 686.87 624.58 A 0.76 0.76 0.0 0 1 686.12 623.82 L 686.08 617.69 Q 686.07 616.95 686.81 616.96 L 710.03 617.33 Q 710.53 617.33 710.55 617.83 Q 711.09 628.89 710.64 636.84 C 710.37 641.47 707.24 643.09 703.05 645.21 Q 689.24 652.19 674.81 646.93 C 651.93 638.59 652.07 596.80 675.34 588.43 C 689.49 583.33 704.65 587.66 709.55 602.77 A 1.95 1.95 0.0 0 1 708.74 605.01 Q 706.15 606.66 703.15 606.47 A 0.78 0.78 0.0 0 1 702.44 605.90 Q 698.46 591.36 682.47 594.01 C 666.37 596.67 663.46 614.73 667.09 627.91 C 671.28 643.16 688.89 645.20 700.75 637.48 C 704.32 635.16 703.57 630.13 703.12 625.31 Q 703.08 624.83 702.59 624.82 Z">
      <title>G</title>
    </path>
    <path fill="#010101" d=" M 729.25 624.01 L 729.25 648.14 A 0.61 0.61 0.0 0 1 728.61 648.75 L 722.20 648.42 Q 721.76 648.40 721.76 647.95 L 721.74 588.19 Q 721.74 587.58 722.35 587.58 Q 730.43 587.65 749.25 588.00 Q 754.42 588.10 758.28 590.57 C 766.94 596.11 767.12 611.56 760.38 618.70 C 754.14 625.31 738.03 623.51 729.74 623.52 Q 729.25 623.52 729.25 624.01 Z M 729.17 595.30 L 729.07 615.58 A 0.85 0.85 0.0 0 0 729.91 616.43 L 745.12 616.51 A 12.32 10.78 0.3 0 0 757.50 605.79 L 757.50 605.37 A 12.32 10.78 0.3 0 0 745.24 594.53 L 730.03 594.45 A 0.85 0.85 0.0 0 0 729.17 595.30 Z">
      <title>P</title>
    </path>
    <path fill="#010101" d=" M 810.51 641.61 L 810.49 647.32 A 0.61 0.61 0.0 0 1 809.89 647.92 L 775.06 648.21 A 0.61 0.61 0.0 0 1 774.45 647.60 L 774.43 588.11 A 0.61 0.61 0.0 0 1 775.04 587.50 L 781.63 587.50 A 0.61 0.61 0.0 0 1 782.24 588.11 L 782.28 640.39 A 0.61 0.61 0.0 0 0 782.89 641.00 L 809.90 641.00 A 0.61 0.61 0.0 0 1 810.51 641.61 Z">
      <title>L</title>
    </path>
    <path fill="#010101" d=" M 877.78 590.48 C 887.05 597.40 887.30 613.72 877.57 620.38 C 871.21 624.74 857.97 623.67 849.60 623.45 A 0.63 0.63 0.0 0 0 848.95 624.08 L 849.11 647.95 Q 849.11 648.50 848.56 648.50 L 842.16 648.50 Q 841.56 648.50 841.56 647.91 L 841.36 588.21 Q 841.36 587.80 841.77 587.79 Q 857.82 587.36 873.75 588.33 Q 875.00 588.41 877.78 590.48 Z M 849.04 595.13 L 849.00 615.61 A 0.61 0.61 0.0 0 0 849.61 616.22 L 866.11 616.25 A 10.83 10.81 0.1 0 0 876.96 605.45 L 876.96 605.37 A 10.83 10.81 0.1 0 0 866.15 594.55 L 849.65 594.52 A 0.61 0.61 0.0 0 0 849.04 595.13 Z">
      <title>P</title>
    </path>
    <path fill="#010101" d=" M 902.60 612.75 L 931.22 612.75 A 0.49 0.49 0.0 0 0 931.71 612.26 L 931.83 587.99 A 0.49 0.49 0.0 0 1 932.32 587.50 L 939.01 587.50 A 0.49 0.49 0.0 0 1 939.50 587.99 L 939.50 648.06 A 0.49 0.49 0.0 0 1 939.00 648.55 L 932.30 648.48 A 0.49 0.49 0.0 0 1 931.82 647.99 L 931.72 620.31 A 0.49 0.49 0.0 0 0 931.24 619.83 L 902.58 619.54 A 0.49 0.49 0.0 0 0 902.08 620.03 L 901.73 648.02 A 0.49 0.49 0.0 0 1 901.24 648.50 L 895.24 648.50 A 0.49 0.49 0.0 0 1 894.75 648.01 L 894.75 587.95 A 0.49 0.49 0.0 0 1 895.25 587.46 L 901.42 587.62 A 0.49 0.49 0.0 0 1 901.89 588.10 L 902.11 612.26 A 0.49 0.49 0.0 0 0 902.60 612.75 Z">
      <title>H</title>
    </path>
    <path fill="#010101" d=" M 972.81 614.99 Q 979.96 602.25 988.08 589.82 C 990.32 586.40 993.63 587.59 996.98 587.46 Q 998.56 587.39 997.70 588.72 Q 987.09 605.08 978.23 618.48 C 976.64 620.89 975.45 622.98 975.49 626.04 Q 975.62 636.89 975.35 647.72 Q 975.33 648.39 974.66 648.41 L 968.78 648.54 Q 968.00 648.56 968.00 647.78 L 968.00 623.29 A 1.90 1.81 30.1 0 0 967.71 622.30 L 946.44 588.26 Q 945.83 587.29 946.97 587.36 L 954.88 587.82 Q 955.55 587.86 955.90 588.43 L 971.84 615.00 A 0.56 0.56 0.0 0 0 972.81 614.99 Z">
      <title>Y</title>
    </path>
    <path fill="#010101" d=" M 1009.41 614.35 C 1002.88 608.94 1003.84 598.06 1008.56 592.67 Q 1012.66 588.00 1020.21 586.80 C 1031.64 584.98 1043.40 589.23 1045.92 601.76 C 1046.63 605.24 1042.73 606.24 1040.27 605.78 A 1.03 1.00 84.0 0 1 1039.51 605.15 C 1037.45 599.74 1035.27 594.68 1028.93 593.90 C 1021.19 592.95 1011.12 594.69 1011.98 605.00 C 1012.42 610.32 1028.57 612.89 1033.29 614.44 C 1042.25 617.38 1049.64 623.09 1047.95 633.26 C 1045.45 648.28 1029.13 651.77 1016.74 647.96 Q 1004.10 644.08 1002.73 631.23 Q 1002.67 630.67 1003.40 628.86 Q 1003.58 628.40 1004.05 628.21 Q 1006.34 627.25 1008.72 628.08 Q 1009.25 628.26 1009.44 628.80 Q 1010.45 631.73 1011.58 634.56 C 1015.46 644.32 1036.70 644.91 1040.21 633.98 C 1042.02 628.31 1037.73 624.80 1032.64 622.98 C 1025.36 620.38 1015.38 619.29 1009.41 614.35 Z">
      <title>S</title>
    </path>
    <rect fill="#010101" x="-3.88" y="-30.36" transform="matrix(0.999998, 0.001745, -0.001745, 0.999998, 1063.140015, 618.119995)" width="7.76" height="60.72" rx="0.58">
      <title>I</title>
    </rect>
    <path fill="#010101" d=" M 1112.71 648.10 C 1089.48 653.92 1077.45 637.03 1078.21 615.77 C 1078.66 603.40 1083.62 592.23 1095.71 588.01 C 1109.54 583.17 1122.01 588.99 1127.57 602.63 A 1.26 1.25 -22.4 0 1 1126.89 604.26 L 1121.02 606.70 A 0.75 0.75 0.0 0 1 1120.01 606.24 C 1117.39 598.14 1113.64 593.43 1104.42 593.52 C 1080.56 593.78 1079.98 638.14 1100.62 641.94 C 1110.28 643.71 1118.32 638.27 1120.28 628.54 A 1.02 1.02 0.0 0 1 1121.09 627.73 Q 1124.72 627.01 1128.14 628.35 Q 1128.58 628.52 1128.49 628.99 C 1126.81 637.42 1121.22 645.97 1112.71 648.10 Z">
      <title>C</title>
    </path>
    <path fill="#010101" d=" M 1168.48 629.73 C 1161.19 630.37 1153.99 629.72 1146.62 630.01 Q 1146.07 630.03 1145.88 630.55 L 1139.73 647.89 A 0.79 0.79 0.0 0 1 1139.02 648.41 L 1132.27 648.77 A 0.57 0.57 0.0 0 1 1131.71 648.01 L 1153.16 587.93 Q 1153.35 587.39 1153.92 587.42 L 1160.38 587.80 A 2.42 2.42 0.0 0 1 1162.50 589.35 L 1184.87 647.69 Q 1185.20 648.57 1184.26 648.55 L 1176.79 648.40 Q 1176.24 648.38 1176.05 647.87 L 1169.86 630.61 A 1.34 1.34 0.0 0 0 1168.48 629.73 Z M 1148.78 623.26 C 1154.71 623.05 1160.22 623.34 1166.05 623.44 Q 1166.94 623.46 1166.67 622.60 L 1157.96 595.46 A 0.25 0.25 0.0 0 0 1157.48 595.46 L 1148.51 622.89 Q 1148.38 623.27 1148.78 623.26 Z">
      <title>A</title>
    </path>
    <path fill="#010101" d=" M 1227.00 641.45 L 1227.00 647.55 A 0.34 0.34 0.0 0 1 1226.66 647.89 L 1190.84 648.38 A 0.34 0.34 0.0 0 1 1190.50 648.04 L 1190.50 588.09 A 0.34 0.34 0.0 0 1 1190.84 587.75 L 1197.92 587.75 A 0.34 0.34 0.0 0 1 1198.26 588.09 L 1198.23 640.62 A 0.34 0.34 0.0 0 0 1198.57 640.96 L 1226.66 641.11 A 0.34 0.34 0.0 0 1 1227.00 641.45 Z">
      <title>L</title>
    </path>
    <path fill="#010101" d=" M 1270.87 641.80 L 1270.87 647.40 A 0.52 0.52 0.0 0 1 1270.35 647.92 L 1235.58 648.19 A 0.52 0.52 0.0 0 1 1235.05 647.66 L 1235.33 587.99 A 0.52 0.52 0.0 0 1 1235.86 587.47 L 1242.23 587.64 A 0.52 0.52 0.0 0 1 1242.74 588.16 L 1242.76 640.40 A 0.52 0.52 0.0 0 0 1243.27 640.92 L 1270.36 641.28 A 0.52 0.52 0.0 0 1 1270.87 641.80 Z">
      <title>L</title>
    </path>
    <path fill="#010101" d=" M 1299.35 615.25 A 0.42 0.41 47.9 0 0 1300.07 615.29 L 1316.41 588.78 A 2.33 2.32 -77.2 0 1 1318.15 587.68 L 1325.24 586.94 A 0.58 0.58 0.0 0 1 1325.79 587.83 Q 1315.02 605.03 1303.85 622.09 Q 1303.10 623.24 1303.25 625.25 C 1303.82 632.68 1303.49 640.28 1303.74 647.76 Q 1303.77 648.50 1303.03 648.50 L 1297.08 648.50 A 1.25 1.25 0.0 0 1 1295.83 647.27 L 1295.50 622.87 Q 1295.50 622.48 1295.29 622.14 L 1274.67 589.01 Q 1273.27 586.75 1275.91 587.03 C 1279.84 587.44 1282.11 587.02 1284.67 590.67 Q 1292.95 602.51 1299.35 615.25 Z">
      <title>Y</title>
    </path>
    <path fill="#010101" d=" M 1393.09 619.55 C 1401.42 627.12 1398.07 643.26 1387.55 646.82 Q 1385.51 647.50 1382.36 647.70 Q 1368.75 648.55 1355.41 648.17 A 0.67 0.67 0.0 0 1 1354.75 647.50 L 1354.75 588.27 Q 1354.75 587.74 1355.28 587.73 Q 1368.64 587.49 1381.76 588.14 C 1388.42 588.47 1393.16 593.82 1394.67 599.87 C 1396.18 605.96 1393.64 611.22 1388.86 614.94 Q 1388.36 615.33 1388.70 615.87 C 1389.84 617.63 1391.91 618.48 1393.09 619.55 Z M 1362.55 594.91 L 1362.45 612.57 A 0.23 0.23 0.0 0 0 1362.68 612.80 L 1378.24 612.88 A 8.93 8.07 0.3 0 0 1387.21 604.85 L 1387.23 602.87 A 8.93 8.07 0.3 0 0 1378.34 594.76 L 1362.78 594.68 A 0.23 0.23 0.0 0 0 1362.55 594.91 Z M 1362.44 620.91 L 1362.44 640.25 A 0.67 0.67 0.0 0 0 1363.11 640.92 L 1378.14 640.92 A 11.88 10.05 0.0 0 0 1390.02 630.87 L 1390.02 630.29 A 11.88 10.05 -0.0 0 0 1378.14 620.24 L 1363.11 620.24 A 0.67 0.67 0.0 0 0 1362.44 620.91 Z">
      <title>B</title>
    </path>
    <path fill="#010101" d=" M 1439.67 630.25 L 1416.99 630.25 A 1.31 1.31 0.0 0 0 1415.75 631.14 Q 1413.11 638.79 1410.50 646.71 C 1409.60 649.44 1404.88 648.97 1402.96 648.41 A 1.16 1.16 0.0 0 1 1402.20 646.90 Q 1412.73 618.11 1422.94 589.77 C 1424.00 586.82 1428.19 587.37 1430.57 587.55 Q 1431.08 587.59 1431.38 588.00 Q 1433.06 590.29 1434.30 593.48 Q 1447.31 626.91 1455.18 648.03 Q 1455.38 648.57 1454.80 648.57 L 1448.25 648.46 A 2.87 2.86 -8.7 0 1 1445.57 646.50 L 1440.35 630.74 A 0.72 0.71 -9.0 0 0 1439.67 630.25 Z M 1437.02 623.14 A 0.10 0.10 0.0 0 0 1437.12 623.01 L 1428.07 595.32 A 0.31 0.31 0.0 0 0 1427.48 595.32 C 1424.71 604.57 1422.16 613.42 1418.80 622.46 A 0.40 0.40 0.0 0 0 1419.17 623.00 L 1437.02 623.14 Z">
      <title>A</title>
    </path>
    <path fill="#010101" d=" M 1496.47 633.55 C 1500.23 617.24 1464.98 624.18 1461.55 607.80 C 1457.89 590.35 1475.25 583.15 1489.26 587.51 Q 1499.17 590.59 1502.30 600.96 C 1503.62 605.33 1498.96 606.21 1495.99 605.50 A 0.91 0.90 1.6 0 1 1495.32 604.80 C 1494.31 599.47 1491.54 595.43 1485.99 594.17 C 1478.10 592.37 1465.39 595.20 1468.79 606.53 Q 1468.94 607.01 1469.35 607.29 C 1475.48 611.43 1483.46 612.75 1490.50 614.63 C 1500.79 617.37 1506.77 626.34 1503.34 636.75 C 1499.36 648.81 1485.23 650.82 1474.02 648.07 Q 1461.01 644.87 1458.85 630.92 C 1458.32 627.54 1462.91 627.44 1464.93 627.93 Q 1465.42 628.05 1465.59 628.53 C 1467.58 634.27 1468.84 638.31 1474.41 640.44 C 1481.57 643.18 1494.31 642.90 1496.47 633.55 Z">
      <title>S</title>
    </path>
    <path fill="#010101" d=" M 1522.52 613.32 L 1553.91 612.94 A 0.34 0.34 0.0 0 1 1554.25 613.28 L 1554.25 620.42 A 0.34 0.34 0.0 0 1 1553.91 620.76 L 1522.84 620.73 A 0.34 0.34 0.0 0 0 1522.50 621.07 L 1522.21 640.68 A 0.34 0.34 0.0 0 0 1522.55 641.03 L 1557.24 640.99 A 0.34 0.34 0.0 0 1 1557.58 641.35 L 1557.29 647.69 A 0.34 0.34 0.0 0 1 1556.95 648.01 L 1515.34 648.13 A 0.34 0.34 0.0 0 1 1515.00 647.79 L 1514.99 588.05 A 0.34 0.34 0.0 0 1 1515.33 587.71 L 1556.41 587.77 A 0.34 0.34 0.0 0 1 1556.75 588.11 L 1556.75 594.16 A 0.34 0.34 0.0 0 1 1556.41 594.50 L 1522.78 594.50 A 0.34 0.34 0.0 0 0 1522.45 594.83 L 1522.18 612.97 A 0.34 0.34 0.0 0 0 1522.52 613.32 Z">
      <title>E</title>
    </path>
    <path fill="#010101" d=" M 1567.47 588.01 A 0.34 0.34 0.0 0 1 1567.81 587.67 L 1591.37 587.55 A 26.77 23.34 89.7 0 1 1614.85 614.20 L 1614.89 621.26 A 26.77 23.34 89.7 0 1 1591.69 648.15 L 1568.13 648.27 A 0.34 0.34 0.0 0 1 1567.79 647.93 L 1567.47 588.01 Z M 1575.45 595.40 L 1575.45 640.00 A 0.97 0.97 0.0 0 0 1576.42 640.97 L 1589.54 640.97 A 19.42 17.41 90.0 0 0 1606.95 621.55 L 1606.95 613.85 A 19.42 17.41 -90.0 0 0 1589.54 594.43 L 1576.42 594.43 A 0.97 0.97 0.0 0 0 1575.45 595.40 Z">
      <title>D</title>
    </path>
    <path fill="#010101" d=" M 1654.93 621.75 L 1654.68 648.04 Q 1654.67 648.50 1654.21 648.50 L 1648.00 648.50 Q 1647.50 648.50 1647.50 648.00 L 1647.50 588.48 Q 1647.50 587.92 1648.06 587.90 Q 1663.75 587.30 1679.43 588.17 C 1692.42 588.89 1696.13 603.71 1690.30 613.37 C 1687.11 618.66 1683.56 618.59 1678.58 619.98 Q 1677.92 620.17 1678.40 620.66 C 1686.36 628.65 1691.26 637.32 1697.28 647.24 Q 1698.00 648.44 1696.60 648.48 C 1694.18 648.54 1688.44 649.42 1687.01 646.72 C 1682.38 637.94 1677.00 627.94 1670.11 622.14 A 1.08 1.07 -23.5 0 0 1669.49 621.90 L 1655.50 621.21 Q 1654.94 621.18 1654.93 621.75 Z M 1655.03 595.45 L 1654.99 613.07 A 1.05 1.05 0.0 0 0 1656.04 614.13 L 1674.19 614.16 A 11.22 9.73 0.1 0 0 1685.43 604.45 L 1685.43 604.19 A 11.22 9.73 0.1 0 0 1674.23 594.44 L 1656.08 594.41 A 1.05 1.05 0.0 0 0 1655.03 595.45 Z">
      <title>R</title>
    </path>
    <path fill="#010101" d=" M 1712.96 641.03 L 1747.45 640.98 A 0.30 0.30 0.0 0 1 1747.75 641.28 L 1747.75 647.83 A 0.30 0.30 0.0 0 1 1747.45 648.13 L 1705.37 648.16 A 0.30 0.30 0.0 0 1 1705.07 647.86 L 1704.84 587.98 A 0.30 0.30 0.0 0 1 1705.14 587.68 L 1746.53 587.78 A 0.30 0.30 0.0 0 1 1746.83 588.10 L 1746.43 594.22 A 0.30 0.30 0.0 0 1 1746.13 594.50 L 1713.01 594.66 A 0.30 0.30 0.0 0 0 1712.71 594.96 L 1712.70 612.87 A 0.30 0.30 0.0 0 0 1713.00 613.17 L 1744.22 612.93 A 0.30 0.30 0.0 0 1 1744.52 613.23 L 1744.46 620.75 A 0.30 0.30 0.0 0 1 1744.16 621.05 L 1712.88 620.78 A 0.30 0.30 0.0 0 0 1712.58 621.08 L 1712.66 640.73 A 0.30 0.30 0.0 0 0 1712.96 641.03 Z">
      <title>E</title>
    </path>
    <path fill="#010101" d=" M 1765.05 604.00 L 1765.20 647.49 Q 1765.20 648.18 1764.51 648.22 L 1759.09 648.57 Q 1758.47 648.60 1758.37 647.99 Q 1757.99 645.55 1757.99 643.25 Q 1757.96 615.73 1758.37 588.22 Q 1758.38 587.71 1758.88 587.64 C 1762.67 587.10 1765.28 586.94 1767.30 590.07 Q 1781.12 611.58 1794.80 633.93 A 0.38 0.38 0.0 0 0 1795.50 633.73 L 1795.50 588.13 A 0.61 0.61 0.0 0 1 1796.13 587.52 L 1802.35 587.66 A 0.69 0.69 0.0 0 1 1803.02 588.35 L 1802.96 647.74 Q 1802.96 648.39 1802.31 648.44 C 1798.81 648.74 1795.73 649.25 1793.60 645.92 Q 1780.56 625.55 1767.17 603.41 Q 1765.04 599.89 1765.05 604.00 Z">
      <title>N</title>
    </path>
    <path fill="#010101" d=" M 1815.74 587.76 A 0.20 0.20 0.0 0 1 1815.94 587.56 L 1839.06 587.56 A 26.26 23.56 90.0 0 1 1862.62 613.82 L 1862.62 622.10 A 26.26 23.56 -90.0 0 1 1839.06 648.36 L 1815.94 648.36 A 0.20 0.20 0.0 0 1 1815.74 648.16 L 1815.74 587.76 Z M 1823.28 595.52 L 1823.04 640.02 A 1.06 1.06 0.0 0 0 1824.10 641.08 L 1837.60 641.15 A 18.97 17.00 -89.7 0 0 1854.70 622.27 L 1854.74 613.59 A 18.97 17.00 -89.7 0 0 1837.84 594.53 L 1824.34 594.46 A 1.06 1.06 0.0 0 0 1823.28 595.52 Z">
      <title>D</title>
    </path>
    <path fill="#010101" d=" M 1914.75 594.42 L 1881.17 594.81 A 0.42 0.42 0.0 0 0 1880.75 595.23 L 1880.75 612.58 A 0.42 0.42 0.0 0 0 1881.17 613.00 L 1912.58 613.00 A 0.42 0.42 0.0 0 1 1913.00 613.42 L 1913.00 620.33 A 0.42 0.42 0.0 0 1 1912.58 620.75 L 1881.17 620.75 A 0.42 0.42 0.0 0 0 1880.75 621.17 L 1880.75 640.58 A 0.42 0.42 0.0 0 0 1881.17 641.00 L 1915.96 641.00 A 0.42 0.42 0.0 0 1 1916.38 641.43 L 1916.19 647.52 A 0.42 0.42 0.0 0 1 1915.78 647.92 L 1873.67 648.22 A 0.42 0.42 0.0 0 1 1873.25 647.80 L 1873.25 588.17 A 0.42 0.42 0.0 0 1 1873.67 587.75 L 1914.87 587.75 A 0.42 0.42 0.0 0 1 1915.29 588.18 L 1915.17 594.01 A 0.42 0.42 0.0 0 1 1914.75 594.42 Z">
      <title>E</title>
    </path>
    <path fill="#010101" d=" M 1957.32 620.98 C 1965.81 629.17 1970.96 637.66 1976.19 647.81 Q 1976.47 648.34 1975.87 648.41 C 1972.20 648.78 1967.53 649.33 1965.43 645.63 C 1960.90 637.65 1956.17 628.39 1949.32 622.18 A 0.92 0.88 66.2 0 0 1948.74 621.94 L 1935.04 621.25 Q 1934.22 621.21 1934.22 622.03 L 1934.13 647.94 A 0.57 0.56 -0.0 0 1 1933.56 648.50 L 1927.15 648.49 A 0.65 0.65 0.0 0 1 1926.50 647.84 L 1926.50 588.25 Q 1926.50 587.69 1927.07 587.69 C 1938.22 587.80 1949.23 587.49 1960.31 588.26 C 1968.87 588.86 1972.73 598.72 1971.99 606.27 C 1971.03 616.16 1965.37 617.52 1957.49 620.22 Q 1956.79 620.46 1957.32 620.98 Z M 1934.34 594.55 L 1934.24 613.97 A 0.22 0.22 0.0 0 0 1934.46 614.19 L 1952.86 614.29 A 11.28 9.86 0.3 0 0 1964.19 604.49 L 1964.19 604.35 A 11.28 9.86 0.3 0 0 1952.96 594.43 L 1934.56 594.33 A 0.22 0.22 0.0 0 0 1934.34 594.55 Z">
      <title>R</title>
    </path>
    <path fill="#010101" d=" M 1992.29 641.09 L 2026.23 640.96 Q 2026.81 640.96 2026.81 641.54 L 2026.72 647.51 Q 2026.72 647.98 2026.24 647.98 L 1984.75 648.20 Q 1984.30 648.20 1984.30 647.75 L 1984.14 587.95 Q 1984.14 587.55 1984.54 587.56 L 2025.21 587.93 Q 2025.73 587.93 2025.76 588.45 L 2026.07 593.89 Q 2026.10 594.45 2025.54 594.46 C 2014.62 594.55 2003.41 593.97 1992.58 594.82 Q 1991.90 594.87 1991.89 595.55 L 1991.69 612.64 Q 1991.68 613.34 1992.39 613.33 L 2022.51 613.01 A 1.28 1.27 1.1 0 1 2023.80 614.34 L 2023.56 620.13 Q 2023.53 620.79 2022.87 620.79 L 1992.31 620.67 Q 1991.85 620.67 1991.85 621.13 L 1991.75 640.55 Q 1991.74 641.10 1992.29 641.09 Z">
      <title>E</title>
    </path>
    <path fill="#010101" d=" M 2068.36 619.94 A 0.45 0.44 -25.6 0 0 2068.09 620.70 C 2076.18 628.69 2081.35 638.11 2087.18 647.52 A 0.57 0.56 71.6 0 1 2086.75 648.38 C 2083.04 648.67 2078.91 649.96 2076.62 646.15 C 2074.03 641.86 2063.48 622.26 2058.83 621.95 Q 2052.02 621.51 2045.20 621.34 Q 2044.75 621.33 2044.75 621.77 L 2044.75 647.47 Q 2044.75 648.18 2044.03 648.20 L 2037.74 648.36 A 0.45 0.44 -1.3 0 1 2037.28 647.93 L 2036.92 588.28 Q 2036.92 587.78 2037.43 587.77 Q 2049.90 587.71 2062.24 587.74 C 2066.29 587.74 2071.92 587.86 2075.51 589.86 C 2080.60 592.69 2083.38 600.67 2082.72 605.73 Q 2081.03 618.67 2068.36 619.94 Z M 2044.75 595.59 L 2044.75 613.15 A 1.14 1.14 0.0 0 0 2045.89 614.29 L 2064.10 614.29 A 10.89 9.78 -0.0 0 0 2074.99 604.51 L 2074.99 604.23 A 10.89 9.78 0.0 0 0 2064.10 594.45 L 2045.89 594.45 A 1.14 1.14 0.0 0 0 2044.75 595.59 Z">
      <title>R</title>
    </path>
  </g>
</svg>